<svg version="1.0" xmlns="http://www.w3.org/2000/svg" width="800.000000" height="800.000000" viewBox="0 0 800.000000 800.000000" preserveAspectRatio="xMidYMid meet">
  <metadata>
    <rdf:RDF xmlns:rdf="http://www.w3.org/1999/02/22-rdf-syntax-ns#" xmlns:rdfs="http://www.w3.org/2000/01/rdf-schema#" xmlns:dc="http://purl.org/dc/elements/1.1/">
      <rdf:Description dc:format="image/svg+xml" dc:Label="1" dc:ContentProducer="001191330110MACRLGPT8B00000" dc:ProduceID="392047248" dc:ReservedCode1="dobtE6IO79wtHn8k16X6CMZ/jiMZ0WAysvkAsvD1Onw=" dc:ContentPropagator="001191330110MACRLGPT8B00000" dc:PropagateID="392047248" dc:ReservedCode2="dobtE6IO79wtHn8k16X6CMZ/jiMZ0WAysvkAsvD1Onw="/>
    </rdf:RDF>
  </metadata>
  <g transform="translate(0.000000,800.000000) scale(0.100000,-0.100000)" fill="#000000" stroke="none">
    <path d="M4400 6373 c-56 -15 -732 -175 -1605 -378 -823 -192 -914 -214 -944 -230 -16 -8 -38 -29 -49 -47 -35 -59 -34 -86 10 -209 22 -63 48 -140 59 -172 l19 -57 -125 -172 c-118 -161 -125 -174 -125 -218 0 -54 0 -53 314 -922 47 -131 124 -343 170 -470 46 -128 208 -576 360 -996 152 -420 283 -773 291 -786 23 -34 85 -59 137 -54 23 2 169 44 323 92 154 49 357 112 450 141 94 29 339 106 545 170 206 65 445 139 530 165 489 152 798 253 820 269 35 25 71 82 100 159 l25 66 110 36 c135 44 147 51 182 97 24 31 28 46 28 97 -1 56 -16 97 -182 496 -426 1024 -1025 2486 -1073 2616 -14 39 -30 65 -43 72 -15 6 -33 37 -55 94 -58 148 -123 182 -272 141z m150 -48 c16 -8 34 -24 39 -34 13 -24 61 -155 58 -157 -7 -7 -1094 -297 -2154 -574 -271 -71 -505 -136 -521 -144 -16 -8 -33 -23 -36 -32 -4 -10 -10 -14 -15 -8 -16 17 -91 236 -91 266 0 42 44 83 105 96 28 6 194 45 370 87 527 124 713 168 1305 306 311 72 633 148 715 169 173 44 186 45 225 25z m256 -495 c135 -331 531 -1296 629 -1535 46 -110 158 -382 250 -605 92 -223 193 -468 226 -545 32 -77 61 -154 65 -171 7 -38 -19 -100 -50 -116 -11 -6 -131 -49 -266 -94 -1898 -639 -2281 -767 -2313 -775 -50 -12 -112 4 -146 39 -19 19 -71 144 -178 427 -84 220 -243 639 -353 930 -111 292 -286 755 -390 1030 -103 275 -220 583 -259 685 -39 102 -71 195 -71 207 0 27 50 70 98 82 322 82 2100 552 2402 634 178 49 238 62 247 53 7 -6 56 -117 109 -246z m-2736 -1805 c0 -23 -20 -28 -41 -9 -19 17 -26 54 -12 68 9 9 53 -40 53 -59z m136 47 c19 -12 34 -50 28 -66 -7 -19 -45 -21 -62 -4 -13 13 -16 60 -5 71 8 9 25 9 39 -1z m-83 -164 c7 -27 3 -32 -18 -25 -19 8 -20 47 -1 47 7 0 16 -10 19 -22z"/>
    <path d="M2935 5915 c-28 -27 -31 -46 -13 -78 27 -52 75 -61 113 -22 30 30 32 64 4 99 -27 34 -71 35 -104 1z"/>
    <path d="M2627 5832 c-10 -10 -17 -34 -17 -53 0 -84 103 -111 135 -35 15 34 5 71 -23 92 -25 19 -76 17 -95 -4z m14 -29 c-12 -20 -14 -14 -5 12 4 9 9 14 11 11 3 -2 0 -13 -6 -23z"/>
    <path d="M2339 5777 c-50 -26 -51 -100 -1 -129 62 -37 131 25 100 88 -18 37 -66 57 -99 41z m25 -34 c3 -10 10 -27 15 -39 13 -30 -1 -49 -27 -35 -24 13 -36 43 -27 71 8 25 31 26 39 3z"/>
    <path d="M4365 5699 c-42 -13 -994 -263 -1560 -409 -131 -34 -247 -66 -256 -71 -30 -16 -66 -67 -73 -103 -6 -31 20 -107 193 -556 110 -286 208 -531 216 -544 9 -14 37 -33 62 -42 53 -21 47 -22 363 70 196 58 1465 417 1538 436 65 17 113 65 119 120 5 41 -10 82 -156 433 -89 213 -179 433 -201 488 -50 125 -64 145 -111 170 -41 20 -85 23 -134 8z m103 -136 c5 -18 -28 -29 -38 -12 -5 7 -6 17 -3 22 7 12 35 5 41 -10z m-147 -39 c17 -21 0 -49 -31 -49 -31 0 -48 28 -31 49 8 9 21 16 31 16 10 0 23 -7 31 -16z m133 -100 c7 -19 -10 -44 -29 -44 -19 0 -36 25 -29 44 3 9 16 16 29 16 13 0 26 -7 29 -16z m-47 -259 c115 -99 112 -291 -7 -399 -59 -53 -121 -78 -205 -83 -54 -3 -78 0 -105 14 l-35 18 -35 -36 c-51 -53 -106 -67 -189 -45 -56 14 -66 14 -80 2 -36 -32 -106 -56 -166 -55 -33 0 -69 4 -79 8 -16 6 -26 -1 -51 -38 -22 -31 -50 -55 -86 -74 -55 -28 -158 -51 -185 -40 -22 8 -13 47 12 51 21 3 20 5 -18 154 -21 83 -37 158 -36 165 3 16 112 63 145 63 34 0 58 -42 45 -79 -10 -28 -9 -30 18 -36 16 -4 47 -20 69 -36 l41 -29 0 65 c0 202 -144 323 -323 269 -88 -26 -160 -97 -177 -176 -10 -42 -10 -64 -1 -88 12 -35 2 -60 -25 -60 -23 0 -34 36 -34 107 1 118 57 199 178 256 53 25 78 30 136 31 126 0 218 -60 273 -178 25 -54 28 -72 28 -164 0 -115 -1 -114 79 -114 42 0 98 21 111 41 3 5 -5 29 -17 52 -32 63 -36 146 -8 203 31 65 71 96 125 96 36 0 47 -5 70 -32 25 -30 27 -38 22 -97 -4 -47 -14 -83 -40 -133 l-36 -69 25 -9 c86 -33 154 20 166 130 2 19 9 25 28 25 21 0 26 -5 28 -32 7 -73 114 -100 217 -54 97 43 144 113 145 214 0 72 -21 119 -69 155 -55 40 -55 40 -41 57 19 23 43 18 87 -20z m-181 -90 c9 -22 -15 -72 -44 -95 -55 -44 -95 -9 -44 38 16 15 32 37 36 50 8 25 44 30 52 7z m-1243 -815 l52 -30 -45 -1 -45 0 41 -19 c23 -10 66 -24 98 -31 61 -13 63 -17 14 -29 -53 -13 136 -12 231 1 45 6 84 9 86 7 6 -6 -387 -118 -413 -118 -45 0 -59 18 -90 112 -17 51 -36 113 -42 138 -6 25 -14 54 -17 65 -3 14 8 6 36 -23 23 -23 65 -55 94 -72z"/>
    <path d="M3758 4953 c-44 -50 -52 -135 -18 -190 11 -18 22 -33 25 -33 3 0 21 32 40 72 33 69 42 117 29 152 -8 22 -57 20 -76 -1z"/>
    <path d="M3240 4792 c-17 -13 -21 -24 -16 -38 6 -16 9 -15 28 14 25 39 19 49 -12 24z"/>
    <path d="M3268 4679 c-21 -10 -36 -25 -33 -32 2 -6 11 -37 20 -67 9 -30 18 -61 21 -68 3 -10 12 -9 41 3 45 19 79 50 100 89 15 29 14 30 -23 62 -45 38 -74 41 -126 13z"/>
    <path d="M2256 5203 c-10 -10 -7 -63 4 -84 13 -22 38 -25 46 -4 13 33 -30 108 -50 88z"/>
    <path d="M2124 5157 c-17 -45 20 -107 47 -80 9 9 9 21 -2 49 -15 41 -36 54 -45 31z"/>
    <path d="M2207 4983 c-12 -11 -8 -68 7 -88 8 -12 19 -16 31 -11 14 5 16 14 12 42 -8 49 -32 76 -50 57z"/>
    <path d="M5000 3935 c-85 -23 -274 -75 -420 -115 -146 -39 -465 -125 -710 -192 -245 -66 -474 -128 -510 -138 -64 -17 -86 -38 -63 -61 6 -6 177 36 449 110 407 111 1040 282 1299 352 140 37 155 44 155 69 0 28 -20 26 -200 -25z"/>
    <path d="M4955 3649 c-176 -49 -592 -164 -925 -255 -333 -90 -615 -169 -627 -174 -26 -11 -31 -38 -9 -46 15 -6 64 7 766 200 852 233 1144 316 1153 325 14 14 0 41 -20 40 -10 0 -162 -41 -338 -90z"/>
    <path d="M4840 3270 c-190 -54 -525 -148 -745 -210 -220 -62 -406 -118 -413 -124 -10 -10 -10 -15 0 -29 12 -15 41 -9 348 79 184 52 522 147 750 210 228 64 423 121 433 126 23 12 18 42 -8 45 -11 1 -175 -43 -365 -97z"/>
    <path d="M3025 2870 c38 -130 248 -676 268 -699 27 -29 76 -51 114 -51 15 0 122 31 238 69 115 38 290 95 388 126 98 32 176 59 175 60 -2 2 -38 0 -81 -5 -86 -8 -298 3 -386 20 -120 25 -230 63 -371 131 l-54 26 84 7 84 8 -64 32 c-120 59 -237 143 -349 250 -44 42 -52 47 -46 26z"/>
    <path d="M5750 5904 c-36 -8 -94 -24 -130 -35 -71 -23 -264 -118 -256 -126 2 -3 33 2 68 10 94 23 248 50 254 44 3 -3 -54 -121 -126 -262 -72 -141 -129 -260 -125 -263 8 -8 114 97 185 183 98 119 235 349 264 443 7 20 4 22 -31 21 -21 -1 -67 -7 -103 -15z"/>
    <path d="M5555 5185 c46 -40 160 -111 289 -180 69 -38 85 -50 72 -57 -9 -5 -80 -13 -158 -18 -78 -6 -144 -12 -147 -15 -15 -15 111 -178 186 -241 26 -22 68 -54 93 -71 44 -30 163 -93 176 -93 3 0 -11 19 -31 43 -20 23 -73 87 -117 142 -45 55 -87 104 -95 108 -30 18 -8 27 70 27 93 0 275 21 385 44 40 9 76 16 78 16 37 0 -146 96 -320 167 -178 73 -348 127 -491 157 l-30 6 40 -35z"/>
  </g>
</svg>